<svg width="64" height="64" viewBox="0 0 64 64" fill="none" xmlns="http://www.w3.org/2000/svg">
<path d="M37.152 27.7713H33.354V25.2804C33.354 24.3449 33.974 24.1268 34.4107 24.1268C34.8464 24.1268 37.0909 24.1268 37.0909 24.1268V20.0144L33.3997 20C29.3022 20 28.3697 23.0672 28.3697 25.03V27.7713H26V32.0089H28.3697C28.3697 37.4473 28.3697 44 28.3697 44H33.354C33.354 44 33.354 37.3827 33.354 32.0089H36.7173L37.152 27.7713Z" fill="#F7F8FA"/>
<path fill-rule="evenodd" clip-rule="evenodd" d="M32 55C44.7025 55 55 44.7025 55 32C55 19.2975 44.7025 9 32 9C19.2975 9 9 19.2975 9 32C9 44.7025 19.2975 55 32 55ZM32 56C45.2548 56 56 45.2548 56 32C56 18.7452 45.2548 8 32 8C18.7452 8 8 18.7452 8 32C8 45.2548 18.7452 56 32 56Z" fill="#F7F8FA"/>
</svg>
