<svg width="64" height="64" viewBox="0 0 64 64" fill="none" xmlns="http://www.w3.org/2000/svg">
<path d="M31.9991 20C28.7403 20 28.3317 20.0138 27.0519 20.0722C25.7747 20.1305 24.9025 20.3333 24.1392 20.63C23.3501 20.9366 22.681 21.3469 22.0139 22.014C21.3468 22.681 20.9366 23.3502 20.6299 24.1392C20.3333 24.9025 20.1305 25.7747 20.0722 27.0519C20.0138 28.3317 20 28.7403 20 31.9991C20 35.2579 20.0138 35.6665 20.0722 36.9463C20.1305 38.2235 20.3333 39.0957 20.6299 39.859C20.9366 40.648 21.3468 41.3172 22.0139 41.9843C22.681 42.6513 23.3501 43.0616 24.1392 43.3683C24.9025 43.6649 25.7747 43.8677 27.0519 43.926C28.3317 43.9844 28.7403 43.9982 31.9991 43.9982C35.2579 43.9982 35.6665 43.9844 36.9463 43.926C38.2235 43.8677 39.0957 43.6649 39.859 43.3683C40.648 43.0616 41.3172 42.6513 41.9843 41.9843C42.6513 41.3172 43.0616 40.648 43.3683 39.859C43.6649 39.0957 43.8677 38.2235 43.926 36.9463C43.9844 35.6665 43.9982 35.2579 43.9982 31.9991C43.9982 28.7403 43.9844 28.3317 43.926 27.0519C43.8677 25.7747 43.6649 24.9025 43.3683 24.1392C43.0616 23.3502 42.6513 22.681 41.9843 22.014C41.3172 21.3469 40.648 20.9366 39.859 20.63C39.0957 20.3333 38.2235 20.1305 36.9463 20.0722C35.6665 20.0138 35.2579 20 31.9991 20ZM31.9991 22.162C35.203 22.162 35.5825 22.1742 36.8478 22.232C38.0177 22.2854 38.653 22.4808 39.0758 22.6451C39.6359 22.8628 40.0356 23.1228 40.4555 23.5427C40.8754 23.9626 41.1354 24.3623 41.3531 24.9224C41.5174 25.3452 41.7129 25.9805 41.7662 27.1504C41.824 28.4157 41.8362 28.7952 41.8362 31.9991C41.8362 35.203 41.824 35.5825 41.7662 36.8478C41.7129 38.0177 41.5174 38.653 41.3531 39.0758C41.1354 39.6359 40.8754 40.0356 40.4555 40.4555C40.0356 40.8754 39.6359 41.1354 39.0758 41.3531C38.653 41.5174 38.0177 41.7129 36.8478 41.7662C35.5827 41.824 35.2032 41.8362 31.9991 41.8362C28.795 41.8362 28.4155 41.824 27.1504 41.7662C25.9805 41.7129 25.3452 41.5174 24.9224 41.3531C24.3623 41.1354 23.9626 40.8754 23.5427 40.4555C23.1228 40.0356 22.8627 39.6359 22.6451 39.0758C22.4808 38.653 22.2853 38.0177 22.2319 36.8478C22.1742 35.5825 22.162 35.203 22.162 31.9991C22.162 28.7952 22.1742 28.4157 22.2319 27.1504C22.2853 25.9805 22.4808 25.3452 22.6451 24.9224C22.8627 24.3623 23.1228 23.9626 23.5427 23.5427C23.9626 23.1228 24.3623 22.8628 24.9224 22.6451C25.3452 22.4808 25.9805 22.2854 27.1504 22.232C28.4157 22.1742 28.7952 22.162 31.9991 22.162Z" fill="#F7F8FA"/>
<path d="M31.9991 35.9995C29.7899 35.9995 27.9991 34.2087 27.9991 31.9996C27.9991 29.7904 29.7899 27.9995 31.9991 27.9995C34.2082 27.9995 35.9991 29.7904 35.9991 31.9996C35.9991 34.2087 34.2082 35.9995 31.9991 35.9995ZM31.9991 25.8374C28.5958 25.8374 25.8369 28.5962 25.8369 31.9996C25.8369 35.4028 28.5958 38.1617 31.9991 38.1617C35.4024 38.1617 38.1612 35.4028 38.1612 31.9996C38.1612 28.5962 35.4024 25.8374 31.9991 25.8374Z" fill="#F7F8FA"/>
<path d="M39.8447 25.5941C39.8447 26.3894 39.2 27.0341 38.4047 27.0341C37.6095 27.0341 36.9647 26.3894 36.9647 25.5941C36.9647 24.7988 37.6095 24.1541 38.4047 24.1541C39.2 24.1541 39.8447 24.7988 39.8447 25.5941Z" fill="#F7F8FA"/>
<path fill-rule="evenodd" clip-rule="evenodd" d="M32 55C44.7025 55 55 44.7025 55 32C55 19.2975 44.7025 9 32 9C19.2975 9 9 19.2975 9 32C9 44.7025 19.2975 55 32 55ZM32 56C45.2548 56 56 45.2548 56 32C56 18.7452 45.2548 8 32 8C18.7452 8 8 18.7452 8 32C8 45.2548 18.7452 56 32 56Z" fill="#F7F8FA"/>
</svg>
