<svg width="64" height="64" viewBox="0 0 64 64" fill="none" xmlns="http://www.w3.org/2000/svg">
<path fill-rule="evenodd" clip-rule="evenodd" d="M25.5777 42.9999L25.5833 28.3333H21.0056L21 42.9999H25.5777ZM23.2783 25.5833C24.6988 25.5833 25.5832 24.5641 25.5832 23.2915C25.5569 21.9904 24.6988 21 23.3051 21C21.9112 21 21 21.9905 21 23.2915C21 24.5641 21.8843 25.5833 23.2517 25.5833H23.2783ZM28.3334 42.9999H32.9168V34.7104C32.9168 34.2668 32.9475 33.8231 33.0717 33.5068C33.4119 32.62 34.609 31.7016 35.909 31.7016C37.6125 31.7016 38.4167 33.0635 38.4167 35.0585L38.4167 43L43 42.9999V34.4885C43 29.929 40.6782 27.8077 37.5811 27.8077C35.0419 27.8076 33.5049 29.2956 32.8856 30.3086H32.9168L32.9225 28.3333H28.3391C28.4009 29.7259 28.3334 42.9999 28.3334 42.9999Z" fill="#F7F8FA"/>
<path fill-rule="evenodd" clip-rule="evenodd" d="M32 55C44.7025 55 55 44.7025 55 32C55 19.2975 44.7025 9 32 9C19.2975 9 9 19.2975 9 32C9 44.7025 19.2975 55 32 55ZM32 56C45.2548 56 56 45.2548 56 32C56 18.7452 45.2548 8 32 8C18.7452 8 8 18.7452 8 32C8 45.2548 18.7452 56 32 56Z" fill="#F7F8FA"/>
</svg>
