<svg width="64" height="64" viewBox="0 0 64 64" fill="none" xmlns="http://www.w3.org/2000/svg">
<path fill-rule="evenodd" clip-rule="evenodd" d="M37.4982 34.3822C37.1996 34.2334 35.7316 33.5146 35.4579 33.4154C35.1843 33.3162 34.9852 33.2667 34.7862 33.5641C34.5871 33.8615 34.0149 34.5309 33.8407 34.7292C33.6665 34.9275 33.4924 34.9525 33.1938 34.8036C32.8952 34.6549 31.9331 34.3411 30.7926 33.3287C29.9051 32.5408 29.3058 31.5677 29.1316 31.2702C28.9574 30.9727 29.113 30.8119 29.2625 30.6637C29.3969 30.5306 29.5611 30.3166 29.7104 30.1431C29.8597 29.9696 29.9095 29.8456 30.009 29.6474C30.1085 29.449 30.0588 29.2755 29.984 29.1268C29.9095 28.9781 29.3123 27.5154 29.0635 26.9203C28.8211 26.341 28.575 26.4194 28.3917 26.4102C28.2177 26.4017 28.0184 26.3998 27.8195 26.3998C27.6204 26.3998 27.2969 26.4742 27.0232 26.7716C26.7495 27.0691 25.9782 27.7881 25.9782 29.2506C25.9782 30.7133 27.0481 32.1263 27.1974 32.3246C27.3467 32.523 29.3028 35.5244 32.2981 36.8115C33.0104 37.1178 33.5667 37.3006 34.0002 37.4375C34.7155 37.6637 35.3664 37.6318 35.8809 37.5552C36.4546 37.47 37.6475 36.8364 37.8963 36.1424C38.1451 35.4481 38.1451 34.8532 38.0705 34.7292C37.9958 34.6053 37.7968 34.5309 37.4982 34.3822ZM32.0502 41.7853H32.0462C30.2639 41.7846 28.5159 41.3081 26.9909 40.4075L26.6282 40.1933L22.8691 41.1746L23.8725 37.527L23.6364 37.153C22.6421 35.5793 22.117 33.7603 22.1178 31.8925C22.12 26.4426 26.5756 22.0086 32.0541 22.0086C34.707 22.0095 37.2008 23.0391 39.0761 24.9075C40.9513 26.7758 41.9834 29.2593 41.9824 31.9005C41.9801 37.3509 37.5245 41.7853 32.0502 41.7853ZM40.5033 23.4878C38.2471 21.2398 35.2468 20.0013 32.0501 20C25.4635 20 20.1028 25.3347 20.1001 31.8918C20.0993 33.9879 20.6495 36.0337 21.6953 37.8373L20 44L26.3347 42.3462C28.0802 43.2937 30.0453 43.7931 32.0453 43.7938H32.0502C38.6361 43.7938 43.9973 38.4585 44 31.9013C44.0012 28.7236 42.7594 25.7357 40.5033 23.4878Z" fill="#F7F8FA"/>
<path fill-rule="evenodd" clip-rule="evenodd" d="M32 55C44.7025 55 55 44.7025 55 32C55 19.2975 44.7025 9 32 9C19.2975 9 9 19.2975 9 32C9 44.7025 19.2975 55 32 55ZM32 56C45.2548 56 56 45.2548 56 32C56 18.7452 45.2548 8 32 8C18.7452 8 8 18.7452 8 32C8 45.2548 18.7452 56 32 56Z" fill="#F7F8FA"/>
</svg>
